<?xml version="1.0" standalone="no"?><!DOCTYPE svg PUBLIC "-//W3C//DTD SVG 1.1//EN" "http://www.w3.org/Graphics/SVG/1.1/DTD/svg11.dtd"><svg t="1708160836436" class="icon" viewBox="0 0 1024 1024" version="1.1" xmlns="http://www.w3.org/2000/svg" p-id="2059" xmlns:xlink="http://www.w3.org/1999/xlink" width="200" height="200"><path d="M312 448c-17.6 0-32-14.4-32-32V214.4c0-17.6 14.4-32 32-32s32 14.4 32 32V416c0 17.6-12.8 32-32 32zM657.6 819.2c-8 0-16-3.2-22.4-9.6-12.8-12.8-12.8-32 0-44.8l142.4-142.4c12.8-12.8 32-12.8 44.8 0s12.8 32 0 44.8l-142.4 142.4c-6.4 6.4-14.4 9.6-22.4 9.6z" fill="#1A6CFE" p-id="2060"></path><path d="M412.8 347.2H211.2c-17.6 0-32-14.4-32-32s14.4-32 32-32h201.6c17.6 0 32 14.4 32 32s-14.4 32-32 32zM800 819.2c-8 0-16-3.2-22.4-9.6l-142.4-142.4c-12.8-12.8-12.8-32 0-44.8s32-12.8 44.8 0l142.4 142.4c12.8 12.8 12.8 32 0 44.8-6.4 6.4-14.4 9.6-22.4 9.6z" fill="#1A6CFE" p-id="2061"></path><path d="M812.8 347.2H611.2c-17.6 0-32-14.4-32-32s14.4-32 32-32h201.6c17.6 0 32 14.4 32 32s-14.4 32-32 32zM412.8 715.2H211.2c-17.6 0-32-14.4-32-32s14.4-32 32-32h201.6c17.6 0 32 14.4 32 32s-14.4 32-32 32zM412.8 827.2H211.2c-17.6 0-32-14.4-32-32s14.4-32 32-32h201.6c17.6 0 32 14.4 32 32s-14.4 32-32 32z" fill="#B3CEFF" p-id="2062"></path><path d="M896 1024H128c-70.4 0-128-57.6-128-128V128c0-70.4 57.6-128 128-128h768c70.4 0 128 57.6 128 128v768c0 70.4-57.6 128-128 128zM128 64C92.8 64 64 92.8 64 128v768c0 35.2 28.8 64 64 64h768c35.2 0 64-28.8 64-64V128c0-35.2-28.8-64-64-64H128z" fill="#1A6CFE" p-id="2063"></path></svg>