<?xml version="1.0" standalone="no"?><!DOCTYPE svg PUBLIC "-//W3C//DTD SVG 1.1//EN" "http://www.w3.org/Graphics/SVG/1.1/DTD/svg11.dtd"><svg t="1708161168391" class="icon" viewBox="0 0 1095 1024" version="1.1" xmlns="http://www.w3.org/2000/svg" p-id="3863" xmlns:xlink="http://www.w3.org/1999/xlink" width="213.8671875" height="200"><path d="M189.805967 609.500073H0v-48.713992h185.050967l-61.073989-59.464989 34.157994-33.352994 88.721985 88.282984 34.523994 34.377994-32.329995 32.329994-0.658-0.585999-82.723985 79.505986-36.425994-35.839994 60.56299-56.53999z m213.576962 21.356996h138.969976V512.00009h-138.969976v118.856979z m0 39.643993v111.615981h138.969976V670.500062h-138.969976z m176.054969-39.643993H727.989872V512.00009H579.437898v118.856979z m0 39.643993v111.615981H727.989872V670.500062H579.437898z m185.709968-39.643993h138.897975V512.00009H765.073866v118.856979z m0 39.643993v111.615981h138.897975V670.500062H765.073866zM403.381929 472.357097h138.969976V353.500118h37.084993v118.857979H727.989872V353.500118h37.155994v118.857979h138.898975V353.500118H403.382929v118.857979z m0-158.427972h500.662912v-72.045988H403.382929v72.045988z m586.824897-102.765982C979.016828 127.195158 911.57884 63.050169 829.585854 63.050169h-375.369934c-89.964984 0-162.375971 77.239986-162.375971 173.055969v131.217977c-33.572994 6.143999-59.02599 10.313998-59.02599 9.069999V236.105138c0-62.609989 23.259996-122.733978 64.803989-167.05797A214.308962 214.308962 0 0 1 454.21792 0.00018h375.439934c111.17898-0.146 205.239964 87.917985 219.429962 205.604964-18.065997 1.61-38.106993 3.436999-58.87999 5.557999z m1.17 585.069897c34.376994-0.439 59.24599-0.366 59.099989 1.17-7.459999 124.269978-104.155982 220.891961-220.891961 220.745961H454.21692c-116.00398 0.292-212.406963-95.159983-220.817961-218.623962-0.146-1.756 24.648996-2.122 59.09999-1.901999 7.313999 88.575984 76.799987 157.622972 161.717971 157.622972h375.369934c85.429985 0 155.061973-69.924988 161.717972-159.012972h0.146zM356.569937 195.000146h594.285896V828.930034H356.569937V195.072146z" fill="#4778FB" p-id="3864"></path></svg>