<?xml version="1.0" standalone="no"?><!DOCTYPE svg PUBLIC "-//W3C//DTD SVG 1.1//EN" "http://www.w3.org/Graphics/SVG/1.1/DTD/svg11.dtd"><svg t="1708161100547" class="icon" viewBox="0 0 1024 1024" version="1.1" xmlns="http://www.w3.org/2000/svg" p-id="3299" xmlns:xlink="http://www.w3.org/1999/xlink" width="200" height="200"><path d="M716.8 579.517217a95.565913 95.565913 0 0 0-88.375652 58.724174l-165.398261-81.029565a138.217739 138.217739 0 0 0 8.013913-45.412174c0-3.116522 0-6.255304-0.222609-9.394087l169.182609-82.988522a95.721739 95.721739 0 1 0-19.589565-57.87826 97.257739 97.257739 0 0 0 6.678261 35.238956l-160.946087 79.449044a129.313391 129.313391 0 0 0-111.972174-93.495653v-82.988521a66.782609 66.782609 0 1 0-25.822609 0v82.988521a129.825391 129.825391 0 0 0 0 258.226087v83.366957a67.005217 67.005217 0 1 0 25.822609 0v-83.366957a129.424696 129.424696 0 0 0 97.502608-61.061565l170.073044 83.366957a104.403478 104.403478 0 0 0-0.890435 11.753739 95.833043 95.833043 0 1 0 95.944348-95.521391z m0 0" fill="#0E87F7" p-id="3300"></path></svg>