<?xml version="1.0" standalone="no"?><!DOCTYPE svg PUBLIC "-//W3C//DTD SVG 1.1//EN" "http://www.w3.org/Graphics/SVG/1.1/DTD/svg11.dtd"><svg t="1708160889718" class="icon" viewBox="0 0 1024 1024" version="1.1" xmlns="http://www.w3.org/2000/svg" p-id="2331" xmlns:xlink="http://www.w3.org/1999/xlink" width="200" height="200"><path d="M245.694464 134.73473422H778.30674963a110.96094341 110.96094341 0 0 1 110.95972978 110.95972978V778.30674963a110.96094341 110.96094341 0 0 1-110.95972978 110.95972978H245.69325037a110.96094341 110.96094341 0 0 1-110.95972978-110.95972978V245.69325037a110.96094341 110.96094341 0 0 1 110.95972978-110.95972978z m0 44.38364919a66.57608059 66.57608059 0 0 0-66.57608059 66.57608059V778.30674963a66.57608059 66.57608059 0 0 0 66.57608059 66.57608059H778.30674963a66.57608059 66.57608059 0 0 0 66.57608059-66.57608059V245.69325037a66.57608059 66.57608059 0 0 0-66.57608059-66.57608059H245.69325037z" p-id="2332"></path><path d="M179.11838341 401.03905659h665.76323318V356.65540741H179.11838341z m110.96094341 177.537024v44.38486282H156.92716563v-44.38486282h133.15216119z m576.99350755 0v44.38486282H733.92067318v-44.38486282h133.15216119z m-377.26526578-44.38364918v199.72824177h44.38486282V534.19243141z" p-id="2333"></path><path d="M629.440512 660.86381037l31.424512-31.42329837L512 480.6203923 363.13618963 629.440512l31.42329837 31.424512L512 543.3796077z" p-id="2334"></path></svg>