<?xml version="1.0" standalone="no"?><!DOCTYPE svg PUBLIC "-//W3C//DTD SVG 1.1//EN" "http://www.w3.org/Graphics/SVG/1.1/DTD/svg11.dtd"><svg t="1708160919149" class="icon" viewBox="0 0 1024 1024" version="1.1" xmlns="http://www.w3.org/2000/svg" p-id="2467" xmlns:xlink="http://www.w3.org/1999/xlink" width="200" height="200"><path d="M800.832 265.152a64 64 0 0 1 63.168 64v402.304a64 64 0 0 1-63.168 64H223.168a64 64 0 0 1-63.168-64V329.152a64 64 0 0 1 63.168-64h577.664z m-13.632 445.376V349.312a8.32 8.32 0 0 0-8.32-8.192H245.12a8.32 8.32 0 0 0-8.32 8.192v361.216c0 4.48 3.712 8.192 8.32 8.192h533.76a8.32 8.32 0 0 0 8.32-8.192z m-390.208-54.528h-56.704V518.784c0-19.84-0.576-31.744-1.728-35.776-1.088-3.968-4.16-7.04-9.216-9.088-5.12-2.048-16.32-3.072-33.856-3.072H288v-29.824c36.608-6.656 64.384-20.288 83.456-40.96h25.6v255.936z m161.28-42.88v42.88H435.2v-35.84c36.48-66.816 58.112-108.16 65.024-124.032 6.848-15.872 10.304-28.288 10.304-37.12a29.632 29.632 0 0 0-3.136-15.36 10.432 10.432 0 0 0-9.472-4.992 10.24 10.24 0 0 0-9.536 5.568c-2.048 3.712-3.136 11.072-3.136 22.208v23.872H435.2v-9.152c0-14.08 0.64-25.152 1.92-33.28a62.208 62.208 0 0 1 9.6-23.936 49.152 49.152 0 0 1 19.776-17.92c8.128-3.968 17.792-6.016 29.184-6.016 22.208 0 39.04 6.208 50.432 18.56 11.392 12.352 17.088 27.968 17.088 46.912 0 14.336-3.2 29.568-9.6 45.568-6.4 16-25.344 50.112-56.704 102.08h61.376z m140.48-101.568c8.256 3.2 14.4 8.32 18.432 15.488 4.032 7.168 6.016 23.872 6.016 50.304 0 19.52-1.92 34.752-5.888 45.568a45.824 45.824 0 0 1-20.48 24.64 73.344 73.344 0 0 1-37.12 8.448c-17.28 0-30.72-3.264-40.576-9.792a45.824 45.824 0 0 1-19.328-24.064c-3.072-9.472-4.608-25.92-4.608-49.28v-19.52h54.272v40c0 10.624 0.576 17.408 1.664 20.288 1.088 2.88 3.584 4.352 7.424 4.352 4.224 0 7.04-1.856 8.32-5.44 1.344-3.712 2.048-13.184 2.048-28.608v-17.088a56.192 56.192 0 0 0-2.816-20.672 14.656 14.656 0 0 0-8.32-8.576 75.456 75.456 0 0 0-21.376-2.368v-35.776c12.928 0 20.928-0.512 23.936-1.664 3.008-1.088 5.248-3.52 6.592-7.296a56.832 56.832 0 0 0 1.984-17.664v-13.632c0-8.64-0.768-14.336-2.304-17.088a7.872 7.872 0 0 0-7.36-4.096c-3.776 0-6.336 1.472-7.68 4.352-1.408 2.88-2.112 9.088-2.112 18.496v20.224H595.2v-20.992c0-23.552 4.736-39.424 14.272-47.68 9.472-8.32 24.576-12.416 45.248-12.416 25.92 0 43.456 5.76 52.672 17.152 9.216 11.456 13.824 27.392 13.824 47.744 0 13.76-1.664 23.68-4.992 29.824a46.592 46.592 0 0 1-17.472 16.832z" fill="#F7B40A" p-id="2468"></path></svg>