<?xml version="1.0" standalone="no"?><!DOCTYPE svg PUBLIC "-//W3C//DTD SVG 1.1//EN" "http://www.w3.org/Graphics/SVG/1.1/DTD/svg11.dtd"><svg t="1708160859650" class="icon" viewBox="0 0 1024 1024" version="1.1" xmlns="http://www.w3.org/2000/svg" p-id="2196" xmlns:xlink="http://www.w3.org/1999/xlink" width="200" height="200"><path d="M911.286857 343.771429a29.988571 29.988571 0 0 1 29.988572 29.988571v382.976a102.4 102.4 0 0 1-30.208 72.923429 102.4 102.4 0 0 1-72.923429 30.281142H291.620571l55.661715 57.270858a29.257143 29.257143 0 1 1-41.325715 41.398857l-107.227428-108.763429a29.257143 29.257143 0 0 1 15.140571-49.444571l5.266286-0.512H801.645714c43.885714 0 79.725714-35.84 79.725715-79.725715V373.833143a29.988571 29.988571 0 0 1 29.988571-30.061714zM125.074286 681.910857a29.988571 29.988571 0 0 1-29.988572-29.988571V268.946286a102.4 102.4 0 0 1 30.281143-72.996572 102.4 102.4 0 0 1 72.923429-30.208h546.523428l-55.734857-57.270857a29.257143 29.257143 0 1 1 41.398857-41.398857l107.227429 108.763429a29.257143 29.257143 0 0 1-15.140572 49.444571l-5.339428 0.512H234.861714c-43.885714 0-79.725714 35.766857-79.725714 79.725714v346.331429a29.988571 29.988571 0 0 1-29.988571 29.988571z" fill="#000000" fill-opacity=".65" p-id="2197"></path><path d="M413.842286 648.045714a21.577143 21.577143 0 0 1-15.286857-6.582857l-106.788572-106.788571a21.211429 21.211429 0 0 1 0-30.72l106.788572-106.715429a21.650286 21.650286 0 0 1 15.36-6.582857c5.558857 0 10.971429 2.340571 15.286857 6.582857a16.896 16.896 0 0 1 6.509714 12.726857 23.186286 23.186286 0 0 1-6.582857 17.92L337.773714 519.314286l91.428572 91.428571c4.315429 4.315429 6.582857 9.728 6.582857 15.36 0 5.632-2.267429 10.971429-6.582857 15.36a21.577143 21.577143 0 0 1-15.286857 6.582857m203.410285 0a21.650286 21.650286 0 0 1-15.36-6.582857 21.723429 21.723429 0 0 1-6.582857-15.36c0-5.632 2.413714-11.044571 6.582857-15.36L693.394286 519.314286 601.965714 427.885714a21.723429 21.723429 0 0 1-6.582857-15.36c0-5.632 2.340571-10.971429 6.582857-15.286857a21.723429 21.723429 0 0 1 15.286857-6.582857c5.632 0 10.971429 2.340571 15.36 6.582857l106.715429 106.788572a21.211429 21.211429 0 0 1 0 30.573714l-106.788571 106.788571a21.577143 21.577143 0 0 1-15.286858 6.582857M482.304 709.485714a23.405714 23.405714 0 0 1-4.169143-0.365714 20.48 20.48 0 0 1-13.897143-8.777143 23.405714 23.405714 0 0 1-3.657143-17.554286l71.094858-335.652571a22.089143 22.089143 0 0 1 26.331428-17.554286c10.898286 2.194286 17.554286 15.725714 17.554286 27.062857l-71.094857 334.848a22.089143 22.089143 0 0 1-22.162286 17.993143" fill="#000000" fill-opacity=".65" p-id="2198"></path></svg>